<svg width="97" height="8" viewBox="0 0 97 8" fill="none" xmlns="http://www.w3.org/2000/svg">
<g opacity="0.7">
<path d="M0.75643 5.62967V6.51857H0V0H0.75643V2.81484C1.13464 2.29631 1.66415 1.77779 2.57186 1.77779C3.70651 1.77779 4.84115 2.66669 4.84115 4.14818C4.84115 5.62967 3.70651 6.51857 2.57186 6.51857C1.66415 6.59265 1.059 6.1482 0.75643 5.62967ZM4.00908 4.22226C4.00908 3.11114 3.25265 2.44446 2.34493 2.44446C1.43722 2.44446 0.680787 3.18521 0.680787 4.22226C0.680787 5.2593 1.51286 6.00005 2.34493 6.00005C3.32829 6.00005 4.00908 5.33338 4.00908 4.22226Z" fill="white"/>
<path d="M5.52189 7.70361L5.74882 7.18508C5.97575 7.33323 6.20268 7.33323 6.50525 7.33323C6.95911 7.33323 7.18604 7.11101 7.48861 6.44434L5.37061 1.92578H6.12704L7.86682 5.77766L9.37968 1.92578H10.1361L8.1694 6.66656C7.79118 7.62953 7.33732 7.9999 6.58089 7.9999C6.12703 7.9999 5.90011 7.85176 5.52189 7.70361Z" fill="white"/>
<path d="M16.6416 0.296387H21.3315V1.25936H17.7006V2.96308H20.8776V3.92605H17.7006V6.44459H16.6416V0.296387Z" fill="white"/>
<path d="M29.5766 0.221191H30.6356L33.4344 6.51754H32.2241L31.5433 5.03605H28.5176L27.8368 6.51754H26.7021L29.5766 0.221191ZM31.1651 4.07307L30.0304 1.55454L28.9714 4.07307H31.1651Z" fill="white"/>
<path d="M39.2588 3.4064C39.2588 1.62861 40.6204 0.221191 42.5114 0.221191C43.6461 0.221191 44.4025 0.591565 45.0077 1.18416L44.3269 1.99898C43.7974 1.55454 43.2679 1.25824 42.5114 1.25824C41.3011 1.25824 40.3934 2.22121 40.3934 3.48048C40.3934 4.66567 41.3011 5.70272 42.5114 5.70272C43.2679 5.70272 43.7974 5.40642 44.3269 4.8879L45.0077 5.62864C44.3269 6.29531 43.6461 6.73976 42.4358 6.73976C40.696 6.59161 39.2588 5.18419 39.2588 3.4064Z" fill="white"/>
<path d="M51.8154 0.296387H52.9501V6.51866H51.8154V0.296387Z" fill="white"/>
<path d="M60.0605 0.296387H61.1952V5.55569H64.5235V6.51866H60.0605V0.296387Z" fill="white"/>
<path d="M71.1802 0.296387H72.3148V6.51866H71.1802V0.296387Z" fill="white"/>
<path d="M81.0135 1.33343H78.9712V0.296387H84.1149V1.33343H82.0726V6.51866H80.9379V1.33343H81.0135Z" fill="white"/>
<path d="M92.6627 4.0742L90.1665 0.296387H91.4524L93.2679 3.03715L95.0833 0.296387H96.3692L93.873 4.00012V6.44459H92.7384V4.0742H92.6627Z" fill="white"/>
</g>
</svg>
