<svg width="100" height="9" viewBox="0 0 100 9" fill="none" xmlns="http://www.w3.org/2000/svg">
<path d="M1.5129 5.90172V6.78697H0.75647V0.295166H1.5129V3.09844C1.89111 2.58205 2.42062 2.06566 3.32833 2.06566C4.46298 2.06566 5.59762 2.9509 5.59762 4.42631C5.59762 5.90172 4.46298 6.78697 3.32833 6.78697C2.42062 6.86074 1.81547 6.41812 1.5129 5.90172ZM4.76555 4.50008C4.76555 3.39353 4.00912 2.72959 3.1014 2.72959C2.19369 2.72959 1.43726 3.4673 1.43726 4.50008C1.43726 5.53287 2.26933 6.27058 3.1014 6.27058C4.08476 6.27058 4.76555 5.60664 4.76555 4.50008Z" fill="white"/>
<path d="M6.27836 7.96723L6.50529 7.45084C6.73222 7.59838 6.95915 7.59838 7.26172 7.59838C7.71558 7.59838 7.94251 7.37707 8.24508 6.71313L6.12708 2.21313H6.8835L8.62329 6.0492L10.1362 2.21313H10.8926L8.92587 6.93445C8.54765 7.89346 8.09379 8.26231 7.33736 8.26231C6.8835 8.26231 6.65658 8.11477 6.27836 7.96723Z" fill="white"/>
<path d="M17.3979 0.590332H22.0878V1.54935H18.457V3.24607H21.634V4.20509H18.457V6.71328H17.3979V0.590332Z" fill="white"/>
<path d="M30.3328 0.516357H31.3918L34.1906 6.78685H32.9803L32.2995 5.31144H29.2738L28.593 6.78685H27.4584L30.3328 0.516357ZM31.9213 4.35242L30.7867 1.84423L29.7277 4.35242H31.9213Z" fill="white"/>
<path d="M40.0151 3.68849C40.0151 1.918 41.3767 0.516357 43.2678 0.516357C44.4024 0.516357 45.1589 0.88521 45.764 1.47537L45.0832 2.28685C44.5537 1.84423 44.0242 1.54914 43.2678 1.54914C42.0575 1.54914 41.1498 2.50816 41.1498 3.76226C41.1498 4.94259 42.0575 5.97537 43.2678 5.97537C44.0242 5.97537 44.5537 5.68029 45.0832 5.1639L45.764 5.9016C45.0832 6.56554 44.4024 7.00816 43.1921 7.00816C41.4524 6.86062 40.0151 5.45898 40.0151 3.68849Z" fill="white"/>
<path d="M52.5719 0.590332H53.7065V6.78705H52.5719V0.590332Z" fill="white"/>
<path d="M60.817 0.590332H61.9517V5.82804H65.28V6.78705H60.817V0.590332Z" fill="white"/>
<path d="M71.9365 0.590332H73.0712V6.78705H71.9365V0.590332Z" fill="white"/>
<path d="M81.7701 1.62312H79.7278V0.590332H84.8715V1.62312H82.8291V6.78705H81.6945V1.62312H81.7701Z" fill="white"/>
<path d="M93.4191 4.35263L90.9229 0.590332H92.2088L94.0242 3.31984L95.8397 0.590332H97.1256L94.6294 4.27886V6.71328H93.4947V4.35263H93.4191Z" fill="white"/>
</svg>
