<svg width="70" height="54" viewBox="0 0 70 54" fill="none" xmlns="http://www.w3.org/2000/svg">
<path d="M66.9639 5.7937H2.40405V51.0577H66.9639V5.7937Z" fill="#E9DFD3"/>
<path d="M24.6727 25.2912C24.1084 24.3294 23.5327 23.3675 23.1151 22.3151C22.4492 20.6177 22.7427 18.8637 23.6682 17.4945C21.1964 16.9627 18.6456 17.2116 16.8059 19.3843C14.9662 21.557 14.5373 25.2233 15.6321 27.8826C16.7043 30.4627 20.3386 33.3482 23.0474 31.5264C24.9774 30.2363 25.9255 27.4073 24.6727 25.3252C24.684 25.3139 24.684 25.3026 24.6727 25.2912Z" fill="#6C0F0F"/>
<path d="M24.5258 46.5767C23.9276 46.5767 23.51 47.0067 23.51 47.6291C23.51 48.2514 23.9276 48.6814 24.5258 48.6814C25.124 48.6814 25.5416 48.2514 25.5416 47.6291C25.5416 47.0067 25.124 46.5767 24.5258 46.5767Z" fill="#6C0F0F"/>
<path d="M35.4853 46.4862C35.0226 46.4862 34.6953 46.7578 34.5824 47.2104H36.4334C36.2867 46.7465 35.9481 46.4862 35.4853 46.4862Z" fill="#6C0F0F"/>
<path d="M66.3205 0H3.67946C1.64786 0 0 1.65214 0 3.68902V50.311C0 52.3479 1.64786 54 3.67946 54H66.3205C68.3521 54 70 52.3479 70 50.311V3.68902C70 1.65214 68.3521 0 66.3205 0ZM19.4244 49.5415H17.5508V44.5851H19.4244C20.8804 44.5851 21.93 45.6262 21.93 47.052C21.93 48.4891 20.8804 49.5415 19.4244 49.5415ZM24.526 49.6433C23.3409 49.6433 22.4605 48.772 22.4605 47.6291C22.4605 46.4748 23.3409 45.6148 24.526 45.6148C25.6998 45.6148 26.5914 46.4748 26.5914 47.6291C26.5914 48.772 25.6998 49.6433 24.526 49.6433ZM28.3634 49.5415H27.3363V44.3361H28.3634V49.5415ZM31.1174 49.6433C29.9661 49.6433 29.0971 48.7607 29.0971 47.6178C29.0971 46.4749 29.9661 45.6148 31.1287 45.6148C32.1106 45.6148 32.8781 46.2372 33.07 47.1878H32.0429C31.8736 46.8143 31.535 46.588 31.1174 46.588C30.553 46.588 30.1354 47.0406 30.1354 47.6291C30.1354 48.2175 30.5643 48.6815 31.1174 48.6815C31.535 48.6815 31.8623 48.4438 32.0429 48.0365H33.0813C32.9007 48.987 32.1219 49.6433 31.1174 49.6433ZM29.4018 34.3894C26.8059 36.9694 23.5214 38.2481 19.5485 38.2481H11.1625C10.1242 38.2481 9.28894 37.3994 9.28894 36.3697V13.7603C9.28894 12.2666 10.4966 11.0671 11.9752 11.0671H19.5485C23.5214 11.0671 26.8172 12.3458 29.4018 14.8919C31.9977 17.438 33.2957 20.6857 33.2957 24.6236C33.2957 28.5616 31.9977 31.8093 29.4018 34.3894ZM37.4379 47.912H34.5485C34.6388 48.4325 34.9774 48.7154 35.4853 48.7154C35.8465 48.7154 36.1399 48.5457 36.298 48.2741H37.3815C37.0993 49.1115 36.377 49.6433 35.4853 49.6433C34.3567 49.6433 33.5102 48.772 33.5102 47.6291C33.5102 46.4748 34.3567 45.6148 35.4853 45.6148C36.6591 45.6148 37.4605 46.5201 37.4605 47.6178C37.4605 47.7083 37.4605 47.8101 37.4379 47.912ZM42.2009 49.5415H41.1964L39.2664 44.5851H40.4402L41.693 48.093L42.9007 44.5851H44.0632L42.2009 49.5415ZM45.6772 49.5415H44.6501V45.7167H45.6772V49.5415ZM44.6501 45.2075V44.2456H45.6772V45.2075H44.6501ZM48.9955 49.5415H48.2618C47.4266 49.5415 46.9074 49.021 46.9074 48.1723V46.5428H46.219V46.3164L47.7201 44.7096H47.912V45.7054H48.9616V46.5314H47.9232V48.0251C47.9232 48.3986 48.1377 48.6023 48.5102 48.6023H48.9842V49.5415H48.9955ZM53.544 49.5302H52.7427L52.6524 49.1907C52.3251 49.4736 51.8962 49.6433 51.4221 49.6433C50.2709 49.6433 49.4244 48.772 49.4244 47.6178C49.4244 46.4635 50.2822 45.6035 51.4221 45.6035C51.9074 45.6035 52.3476 45.7733 52.6749 46.0675L52.7878 45.7054H53.5553V49.5302H53.544ZM62.0655 18.0151C61.5011 19.5654 60.7223 21.0365 59.8758 22.417C56.7381 27.5658 53.544 32.658 50.3725 37.7728C49.2551 39.5721 48.5779 39.5608 47.4379 37.7163C42.7765 30.1572 38.1151 22.6094 33.4989 15.0277C33.1264 14.4166 32.833 13.4095 33.0248 12.7984C33.1603 12.3797 34.2099 12.176 34.8533 12.1534C37.2122 12.0742 37.9684 12.1194 40.316 12.0629C41.2302 12.0402 41.7833 12.425 42.2799 13.251L51.7043 29.0256L53.4199 26.6492C54.5147 25.1329 54.5937 23.0054 53.6569 21.3533C53.6456 21.342 53.6456 21.3307 53.6343 21.3194C53.0248 20.233 52.4041 19.1467 51.9639 17.9585C50.9819 15.3219 51.9413 12.5495 53.9616 10.9878C55.8465 9.52808 58.4424 9.62992 60.316 11.2142C62.1558 12.7758 62.9571 15.5482 62.0655 18.0151Z" fill="#6C0F0F"/>
<path d="M19.4018 45.5809H18.623V48.5457H19.4018C20.2483 48.5457 20.8352 47.9233 20.8352 47.052C20.8352 46.1807 20.2483 45.5809 19.4018 45.5809Z" fill="#6C0F0F"/>
<path d="M51.5013 46.5767C50.9031 46.5767 50.4629 47.0293 50.4629 47.6291C50.4629 48.2288 50.9031 48.6814 51.5013 48.6814C52.0995 48.6814 52.5396 48.2288 52.5396 47.6291C52.5396 47.018 52.0995 46.5767 51.5013 46.5767Z" fill="#6C0F0F"/>
</svg>
