<svg width="74" height="30" viewBox="0 0 74 30" fill="none" xmlns="http://www.w3.org/2000/svg">
<path d="M72.4319 19.4392C71.3798 18.2838 69.5537 17.5946 67.2114 17.5946C66.8938 17.5946 65.802 17.6149 64.9485 17.6351C64.095 17.6554 63.559 17.6554 63.3407 17.6554H63.1223V18.7703C62.0306 17.8986 60.7007 17.473 59.1325 17.473C57.3063 17.473 55.7978 18.0811 54.6068 19.3176C54.309 19.6419 54.0311 19.9662 53.8128 20.3311C53.5746 19.9459 53.2768 19.5811 52.9592 19.2568C51.7682 18.0811 50.2597 17.4932 48.4533 17.4932C46.6272 17.4932 45.1186 18.1013 43.9276 19.3378C42.8954 20.4122 42.3197 21.6892 42.2006 23.2297H38.2307V19.6824H42.8557V17.6554H36.0869V30.0203H38.2108V25.2162H42.2602C42.4785 26.4932 43.0343 27.5676 43.9276 28.4392C45.1186 29.6149 46.6272 30.2027 48.4335 30.2027C50.2398 30.2027 51.7484 29.5946 52.9394 28.3986C53.257 28.0743 53.5349 27.7297 53.7731 27.3649C54.0113 27.75 54.2892 28.0946 54.6266 28.4189C55.8176 29.5946 57.3262 30.1824 59.1325 30.1824C60.7007 30.1824 62.0306 29.7365 63.1223 28.8446V29.9797H63.3605C63.7575 29.9797 64.353 29.9797 65.0875 30C65.8417 30.0203 66.8541 30.0203 67.0724 30.0203C69.2758 30.0203 71.0027 29.4122 72.1937 28.2365C73.4045 27.0405 74 25.5203 74 23.6757C74 22.0135 73.4839 20.5743 72.4319 19.4392ZM51.3911 26.9392C50.6567 27.7703 49.684 28.1757 48.4335 28.1757C47.302 28.1757 46.3294 27.7703 45.5553 26.9392C44.7811 26.1081 44.404 25.0743 44.404 23.8378C44.404 22.5608 44.7811 21.527 45.5354 20.7162C46.3096 19.9054 47.2822 19.5 48.4335 19.5C49.5848 19.5 50.5376 19.9054 51.3117 20.7162C52.0858 21.527 52.4828 22.5608 52.4828 23.8378C52.5027 25.0743 52.1454 26.1081 51.3911 26.9392ZM63.1223 24.75C62.9834 25.6013 62.6459 26.3311 62.0901 26.9392C61.3557 27.7703 60.3831 28.1757 59.1325 28.1757C58.0011 28.1757 57.0284 27.7703 56.2543 26.9392C55.4802 26.1081 55.103 25.0743 55.103 23.8378C55.103 22.5608 55.4802 21.527 56.2344 20.7162C57.0086 19.9054 57.9812 19.5 59.1325 19.5C60.2838 19.5 61.2366 19.9054 62.0107 20.7162C62.6062 21.3243 62.9635 22.0743 63.1223 22.9459C63.162 23.2297 63.2017 23.5338 63.2017 23.8378C63.2017 24.1419 63.1819 24.4459 63.1223 24.75ZM70.5263 26.8378C69.7125 27.6081 68.581 27.9932 67.132 27.9932C66.6159 27.9932 65.6433 27.973 65.2463 27.9527V25.5405V22.0946V19.6824C65.7227 19.6419 66.7151 19.6216 67.1717 19.6216C70.0301 19.6216 71.757 21.1824 71.757 23.6959C71.757 25.0338 71.3401 26.0676 70.5263 26.8378Z" fill="#F1C382"/>
<path d="M17.9044 10.8851H22.5691V8.87838H15.9194V17.473L9.26975 8.87838H7.58252V21.223H9.5675V12.6689L16.2172 21.223H17.9044V16.4392H22.5691V14.4122H17.9044V10.8851Z" fill="#F1C382"/>
<path d="M15.066 -0.344595C6.76878 -0.344595 0 6.56757 0 15.0608C0 23.5541 6.76878 30.4459 15.066 30.4459C23.383 30.4459 30.132 23.5338 30.132 15.0608C30.132 6.58784 23.383 -0.344595 15.066 -0.344595ZM15.066 28.277C7.92006 28.277 2.12393 22.3378 2.12393 15.0608C2.12393 7.76351 7.93991 1.82432 15.066 1.82432C22.2119 1.82432 28.008 7.76351 28.008 15.0405C28.0279 22.3378 22.2119 28.277 15.066 28.277Z" fill="#F1C382"/>
<path d="M38.0719 3.79054L44.4238 11.9797L44.7216 12.3649H46.1309L46.4287 11.9797L48.6121 9.16216H52.8004V12.3649H54.7854H54.8053V3.79054L61.4351 12.3649H63.1223V10.723C63.1422 10.7432 63.162 10.7635 63.1819 10.7838C64.3729 11.9595 65.8814 12.5473 67.6878 12.5473C69.4941 12.5473 71.0027 11.9392 72.1937 10.7432C73.3847 9.5473 74 8.02703 74 6.16216C74 4.27703 73.4045 2.73649 72.1937 1.56081C71.0225 0.385134 69.514 -0.202703 67.6878 -0.202703C65.8616 -0.202703 64.353 0.405405 63.162 1.64189C63.1422 1.66216 63.1422 1.68243 63.1223 1.68243V-7.59959e-07H61.1373V8.59459L54.7656 0.364864L54.4877 -7.59959e-07H53.0783L52.8004 0.364864L46.4287 8.59459V-7.59959e-07H44.4437V8.59459L37.7741 -7.59959e-07H36.0869V12.3649H38.0719V3.79054ZM64.7897 3.06081C65.5638 2.25 66.5365 1.84459 67.6878 1.84459C68.8391 1.84459 69.7919 2.25 70.566 3.06081C71.3401 3.87162 71.7371 4.90541 71.7371 6.18243C71.7371 7.43919 71.3798 8.4527 70.6255 9.28378C69.8911 10.1149 68.9185 10.5203 67.6679 10.5203C66.5365 10.5203 65.5638 10.1149 64.7897 9.28378C64.0156 8.4527 63.6384 7.41892 63.6384 6.18243C63.6583 4.90541 64.0354 3.87162 64.7897 3.06081ZM52.7806 3.79054V7.13514H50.1803L52.7806 3.79054Z" fill="#F1C382"/>
</svg>
